<?xml version="1.0" encoding="UTF-8" standalone="no"?>

<svg
   xmlns:dc="http://purl.org/dc/elements/1.1/"
   xmlns:cc="http://creativecommons.org/ns#"
   xmlns:rdf="http://www.w3.org/1999/02/22-rdf-syntax-ns#"
   xmlns:svg="http://www.w3.org/2000/svg"
   xmlns="http://www.w3.org/2000/svg"
   version="1.1"
   viewBox="0 0 362 157"
   id="svg2">
  <defs
     id="defs4" />
  <metadata
     id="metadata7">
    <rdf:RDF>
      <cc:Work
         rdf:about="">
        <dc:format>image/svg+xml</dc:format>
        <dc:type
           rdf:resource="http://purl.org/dc/dcmitype/StillImage" />
        <dc:title></dc:title>
      </cc:Work>
    </rdf:RDF>
  </metadata>
  <g
     transform="translate(-151.2341,-425.96079)"
     id="layer1">
    <rect
       width="127.22816"
       height="6.9306931"
       x="410.50873"
       y="172.34804"
       id="rect4295"
       style="fill:#ffffff;fill-opacity:1;stroke:#ffffff;stroke-width:148.84638977;stroke-linecap:round;stroke-miterlimit:4;stroke-opacity:1;stroke-dasharray:none" />
    <g
       transform="matrix(0.31094349,0,0,0.31094349,329.1215,323.06406)"
       id="g3115">
      <g
         transform="matrix(-0.65836569,0.75269823,-0.75269823,-0.65836569,968.0178,661.67448)"
         id="g3817"
         style="fill:#dcdce6;fill-opacity:1">
        <rect
           width="150"
           height="512.85712"
           x="264.28571"
           y="276.64789"
           id="rect3043"
           style="fill:#dcdce6;fill-opacity:1;stroke:#000200;stroke-width:0;stroke-miterlimit:4;stroke-opacity:1;stroke-dasharray:none" />
        <path
           d="m 224.28572,568.07648 a 65,52.857143 0 1 1 -129.999999,0 65,52.857143 0 1 1 129.999999,0 z"
           transform="matrix(1.1538462,0,0,1,155.49444,221.41376)"
           id="path3815"
           style="fill:#dcdce6;fill-opacity:1;stroke:#000200;stroke-width:0;stroke-miterlimit:4;stroke-opacity:1;stroke-dasharray:none" />
      </g>
      <g
         transform="matrix(-0.51560171,0.58947859,-0.73411644,-0.64211269,915.20794,711.67758)"
         id="g3821"
         style="fill:#d2d2dc;fill-opacity:1">
        <rect
           width="150"
           height="512.85712"
           x="264.28571"
           y="276.64789"
           id="rect3823"
           style="fill:#d2d2dc;fill-opacity:1;stroke:#000200;stroke-width:0;stroke-miterlimit:4;stroke-opacity:1;stroke-dasharray:none" />
        <path
           d="m 224.28572,568.07648 a 65,52.857143 0 1 1 -129.999999,0 65,52.857143 0 1 1 129.999999,0 z"
           transform="matrix(1.1538462,0,0,1,155.49444,221.41376)"
           id="path3825"
           style="fill:#d2d2dc;fill-opacity:1;stroke:#000200;stroke-width:0;stroke-miterlimit:4;stroke-opacity:1;stroke-dasharray:none" />
      </g>
      <g
         transform="matrix(-0.37904487,0.43335551,-0.73411644,-0.64211269,858.6344,776.35712)"
         id="g3850"
         style="fill:#bebec8;fill-opacity:1">
        <rect
           width="150"
           height="512.85712"
           x="264.28571"
           y="276.64789"
           id="rect3852"
           style="fill:#bebec8;fill-opacity:1;stroke:#000200;stroke-width:0;stroke-miterlimit:4;stroke-opacity:1;stroke-dasharray:none" />
        <path
           d="m 224.28572,568.07648 a 65,52.857143 0 1 1 -129.999999,0 65,52.857143 0 1 1 129.999999,0 z"
           transform="matrix(1.1538462,0,0,1,155.49444,221.41376)"
           id="path3854"
           style="fill:#bebec8;fill-opacity:1;stroke:#000200;stroke-width:0;stroke-miterlimit:4;stroke-opacity:1;stroke-dasharray:none" />
      </g>
      <path
         d="m 436.99199,287.27264 a 103.94469,26.870058 0 1 1 -207.88937,0 103.94469,26.870058 0 1 1 207.88937,0 z"
         transform="matrix(-0.57774948,0.66053107,-0.8517374,-0.74499274,964.68473,719.67647)"
         id="path3827"
         style="fill:#bebec8;fill-opacity:1;stroke:#000200;stroke-width:0;stroke-miterlimit:4;stroke-opacity:1;stroke-dasharray:none" />
      <path
         d="m 561.15015,657.79658 c -15.16629,3.60141 -34.93807,12.06707 -55.37801,24.00527 l 12.37472,53.23694 c 4.59007,-2.74949 9.19615,-5.64663 13.78924,-8.72355 41.77393,-27.98463 66.01129,-58.28588 54.14675,-67.67295 -4.44923,-3.52015 -13.34839,-3.59653 -24.9327,-0.84571 z"
         id="path3907"
         style="fill:#bebec8;fill-opacity:1;stroke:#000200;stroke-width:0;stroke-miterlimit:4;stroke-opacity:1" />
      <path
         d="m 494.64721,780.24879 c 10.72386,-11.31303 22.6411,-29.21754 33.21744,-50.39424 l -39.4877,-37.78924 c -2.33756,4.81293 -4.60769,9.75825 -6.76856,14.84688 -19.65315,46.28127 -23.36028,84.90602 -8.29305,86.27122 5.65019,0.51197 13.14076,-4.29349 21.33187,-12.93462 z"
         id="path3914"
         style="fill:#bebec8;fill-opacity:1;stroke:#000200;stroke-width:0;stroke-miterlimit:4;stroke-opacity:1" />
      <path
         d="m 436.99199,287.27264 a 103.94469,26.870058 0 1 1 -207.88937,0 103.94469,26.870058 0 1 1 207.88937,0 z"
         transform="matrix(-0.3269435,0.3737889,-0.35654127,-0.31185744,741.85529,694.88463)"
         id="path3829"
         style="fill:#000000;fill-opacity:1;stroke:#000200;stroke-width:0;stroke-miterlimit:4;stroke-opacity:1;stroke-dasharray:none" />
      <path
         d="m 550.08775,794.73658 0.93318,4.01455 c -0.0435,0.79228 0.38344,1.78298 0.29941,2.62316 1.83703,13.42137 -4.4573,27.46342 -14.4437,32.20819 -0.94814,0.77177 -2.21703,1.05389 -3.26531,1.52837 l -4.02385,0.93531 c -1.15006,0.0369 -2.41329,0.34301 -3.60465,0.0685 -11.90797,0.21629 -24.29781,-11.18812 -28.08519,-25.1435 l -0.96144,-4.13619 c -0.27958,-2.8329 -0.48686,-5.79804 -0.22147,-8.62942 0.39516,-2.32298 0.81967,-4.63995 1.40396,-6.86585 l 2.03605,-6.37166 c 5.30702,-12.54111 7.77325,-16.92685 3.36708,-36.93939 l 9.5409,6.79604 c 10.1706,8.93406 15.74541,14.00709 25.11545,22.5872 1.07522,1.19904 2.20085,2.34787 3.38671,3.44425 1.89762,2.20033 3.77147,4.43186 5.44104,6.94167 1.24673,2.15934 2.2709,4.56271 3.08179,6.93874 z"
         id="path412"
         style="fill:#d0110f;fill-opacity:1" />
    </g>
    <g
       id="text3006"
       style="font-size:144px;font-style:normal;font-variant:normal;font-weight:500;font-stretch:normal;line-height:125%;letter-spacing:0px;word-spacing:0px;fill:#000000;fill-opacity:1;stroke:none;font-family:Reenie Beanie;-inkscape-font-specification:Reenie Beanie Medium">
      <path
         d="m 229.8581,528.36366 c -6e-5,3.26404 -0.57606,6.38404 -1.728,9.36 -1.15206,2.97603 -2.78406,5.85603 -4.896,8.64 -2.11205,2.78402 -4.60805,5.52002 -7.488,8.208 -2.78404,2.59201 -5.85604,5.13601 -9.216,7.632 -3.55203,2.68801 -7.68003,5.28 -12.384,7.776 -4.70402,2.496 -9.45601,4.704 -14.256,6.624 -4.70401,2.01599 -9.168,3.59999 -13.392,4.752 -4.22399,1.15199 -7.63199,1.72799 -10.224,1.728 -1.72798,-10e-6 -2.97598,-0.24001 -3.744,-0.72 -0.86398,-0.38401 -1.29598,-1.34401 -1.296,-2.88 2e-5,-1.05601 0.38402,-2.30401 1.152,-3.744 0.76802,-1.44 1.53602,-2.16 2.304,-2.16 0.76801,0 1.34401,0.24 1.728,0.72 0.28801,0.48 0.43201,1.008 0.432,1.584 1e-5,0.288 1e-5,0.52799 0,0.72 -0.096,0.19199 -0.14399,0.33599 -0.144,0.432 l 0,0.288 c 3.64801,-0.38401 8.544,-1.536 14.688,-3.456 6.04799,-1.824 13.29599,-5.04 21.744,-9.648 3.64797,-2.01599 7.24797,-4.36799 10.8,-7.056 3.55196,-2.78398 6.71996,-5.71198 9.504,-8.784 2.87995,-3.16797 5.18395,-6.43197 6.912,-9.792 1.72795,-3.45596 2.59195,-6.81596 2.592,-10.08 -5e-5,-2.30395 -1.20005,-4.65595 -3.6,-7.056 -2.30405,-2.49595 -5.28004,-4.79995 -8.928,-6.912 -3.55204,-2.20794 -7.44003,-4.07994 -11.664,-5.616 -4.22402,-1.63194 -8.16002,-2.73593 -11.808,-3.312 0.096,0.48007 0.23998,1.68006 0.432,3.6 0.19198,1.82406 0.47998,3.98406 0.864,6.48 0.38398,2.49605 0.81598,5.18405 1.296,8.064 0.57598,2.78404 1.19998,5.37604 1.872,7.776 0.76798,2.68804 1.24798,4.70403 1.44,6.048 0.28798,1.24803 0.47998,2.30403 0.576,3.168 0.096,0.96003 0.23998,2.20803 0.432,3.744 0.28798,1.44003 0.47998,2.97602 0.576,4.608 0.19198,1.53602 0.33598,3.02402 0.432,4.464 0.19198,1.34402 0.28797,2.40002 0.288,3.168 -3e-5,0.86401 -0.19202,1.77601 -0.576,2.736 -0.28802,0.96001 -0.67202,1.44001 -1.152,1.44 -1.15202,1e-5 -1.96802,-0.38399 -2.448,-1.152 -0.38402,-0.86399 -0.76802,-2.25599 -1.152,-4.176 -0.28802,-2.01598 -0.67202,-4.60798 -1.152,-7.776 -0.48002,-3.16797 -1.39202,-7.05597 -2.736,-11.664 -1.92001,-6.43196 -3.26401,-12.47995 -4.032,-18.144 -0.76801,-5.75994 -1.24801,-10.31994 -1.44,-13.68 -1e-5,7e-5 -0.24001,7e-5 -0.72,0 -0.38401,-0.0959 -0.96001,-0.14393 -1.728,-0.144 -0.67201,7e-5 -1.48801,7e-5 -2.448,0 -0.864,-0.0959 -1.68,-0.14393 -2.448,-0.144 -1.632,7e-5 -3.12,0.33607 -4.464,1.008 -1.344,0.57607 -2.448,1.24806 -3.312,2.016 -0.95999,0.76806 -1.72799,1.48806 -2.304,2.16 -0.67199,0.57606 -1.10399,0.86406 -1.296,0.864 -0.67199,6e-5 -1.58399,-0.14394 -2.736,-0.432 -1.24799,-0.38394 -1.87199,-1.05594 -1.872,-2.016 1e-5,-1.24794 0.62401,-2.49593 1.872,-3.744 1.15201,-1.34393 2.59201,-2.49593 4.32,-3.456 1.72801,-1.05593 3.6,-1.87193 5.616,-2.448 2.016,-0.67193 3.888,-1.00793 5.616,-1.008 2.87999,7e-5 6.23999,0.38407 10.08,1.152 3.83998,0.76807 7.77598,1.82407 11.808,3.168 4.12797,1.34407 8.15997,2.97607 12.096,4.896 4.03196,1.92006 7.63195,4.03206 10.8,6.336 3.16795,2.30406 5.71195,4.80005 7.632,7.488 1.91994,2.68805 2.87994,5.47205 2.88,8.352"
         id="path3151" />
      <path
         d="m 281.88035,556.44366 c 0.0959,0.19201 0.14395,0.48001 0.144,0.864 -5e-5,0.57601 -0.43205,1.44001 -1.296,2.592 -0.28805,0.38401 -0.91205,1.00801 -1.872,1.872 -0.96004,0.86401 -2.25604,1.72801 -3.888,2.592 -1.63204,0.86401 -3.64804,1.63201 -6.048,2.304 -2.30403,0.672 -5.04003,1.008 -8.208,1.008 -2.20802,0 -4.36802,-0.48 -6.48,-1.44 -2.11202,-1.05599 -3.98402,-2.54399 -5.616,-4.464 -1.63201,-2.01599 -2.97601,-4.46399 -4.032,-7.344 -1.05601,-2.97598 -1.58401,-6.43198 -1.584,-10.368 -1e-5,-3.74397 0.47999,-7.24797 1.44,-10.512 0.95999,-3.26396 2.15999,-6.14396 3.6,-8.64 1.53598,-2.49595 3.21598,-4.46395 5.04,-5.904 1.82398,-1.43995 3.59998,-2.15995 5.328,-2.16 1.53597,5e-5 3.07197,0.33605 4.608,1.008 1.63197,0.57605 3.07197,1.34405 4.32,2.304 1.34397,0.96005 2.39996,2.06405 3.168,3.312 0.76796,1.15205 1.15196,2.35205 1.152,3.6 -4e-5,1.44004 -0.67204,2.92804 -2.016,4.464 -1.24803,1.53604 -2.78403,2.97604 -4.608,4.32 -1.82403,1.24803 -3.64803,2.30403 -5.472,3.168 -1.82402,0.76803 -3.26402,1.15203 -4.32,1.152 -0.57602,3e-5 -1.10402,-0.23997 -1.584,-0.72 -0.38402,-0.57597 -0.57602,-1.24797 -0.576,-2.016 -2e-5,-1.34396 0.57598,-2.39996 1.728,-3.168 1.24798,-0.76796 2.59198,-1.43996 4.032,-2.016 1.43997,-0.67196 2.73597,-1.43996 3.888,-2.304 1.24797,-0.86396 1.87197,-2.06396 1.872,-3.6 -3e-5,-0.19195 -0.24003,-0.67195 -0.72,-1.44 -0.48003,-0.76795 -1.77603,-1.15195 -3.888,-1.152 -0.96002,5e-5 -2.06402,0.57605 -3.312,1.728 -1.24802,1.05604 -2.44802,2.54404 -3.6,4.464 -1.15202,1.82404 -2.11202,4.03204 -2.88,6.624 -0.76801,2.49603 -1.15201,5.23203 -1.152,8.208 -1e-5,2.49602 0.43198,4.75202 1.296,6.768 0.95998,2.01602 2.15998,3.74402 3.6,5.184 1.43998,1.34401 3.11998,2.40001 5.04,3.168 1.91997,0.76801 3.88797,1.15201 5.904,1.152 1.43997,10e-6 2.97597,-0.28799 4.608,-0.864 1.72796,-0.67199 3.31196,-1.34399 4.752,-2.016 1.53596,-0.76799 2.83196,-1.43999 3.888,-2.016 1.15196,-0.67198 1.87195,-1.00798 2.16,-1.008 0.28795,2e-5 0.57595,0.14402 0.864,0.432 0.38395,0.28802 0.62395,0.57602 0.72,0.864"
         id="path3153" />
      <path
         d="m 333.6641,545.35566 c -5e-5,0.96002 -0.14405,1.96802 -0.432,3.024 -0.28805,0.96002 -0.57605,1.77602 -0.864,2.448 -0.19205,0.28802 -1.10405,1.29602 -2.736,3.024 -1.53604,1.63202 -3.50404,3.36001 -5.904,5.184 -2.30404,1.82401 -4.94403,3.50401 -7.92,5.04 -2.88003,1.44001 -5.66403,2.16 -8.352,2.16 -1.63202,0 -3.31202,-0.28799 -5.04,-0.864 -1.63202,-0.57599 -3.16801,-1.48799 -4.608,-2.736 -1.44001,-1.34399 -2.64001,-2.97599 -3.6,-4.896 -0.86401,-1.91998 -1.29601,-4.27198 -1.296,-7.056 -1e-5,-4.60797 0.76799,-8.78397 2.304,-12.528 1.53599,-3.74396 3.07199,-6.71996 4.608,-8.928 0.67198,-1.05596 1.53598,-2.11196 2.592,-3.168 1.15198,-1.15195 2.25598,-2.15995 3.312,-3.024 1.05598,-0.95995 2.01598,-1.72795 2.88,-2.304 0.95998,-0.57595 1.63197,-0.86395 2.016,-0.864 0.86397,5e-5 1.63197,0.24005 2.304,0.72 0.76797,0.48005 1.15197,0.96005 1.152,1.44 -3e-5,0.76805 -0.24003,1.44005 -0.72,2.016 -0.38403,0.48005 -0.96003,1.05605 -1.728,1.728 -0.76803,0.57604 -1.68003,1.39204 -2.736,2.448 -1.05602,0.96004 -2.16002,2.25604 -3.312,3.888 -2.30402,3.16804 -4.03202,6.43203 -5.184,9.792 -1.05601,3.26403 -1.58401,6.14402 -1.584,8.64 -1e-5,2.49602 0.91199,4.51202 2.736,6.048 1.91998,1.44001 3.88798,2.16001 5.904,2.16 3.64797,10e-6 6.86397,-0.81599 9.648,-2.448 2.87996,-1.63198 5.32796,-3.45598 7.344,-5.472 2.01596,-2.01598 3.64796,-3.83998 4.896,-5.472 1.24795,-1.63197 2.15995,-2.44797 2.736,-2.448 1.05595,3e-5 1.58395,0.81603 1.584,2.448"
         id="path3155" />
      <path
         d="m 413.4671,541.61166 c -8e-5,1.72803 -0.81607,3.88803 -2.448,6.48 -1.53607,2.49602 -3.64807,4.94402 -6.336,7.344 -2.68806,2.40001 -5.80806,4.46401 -9.36,6.192 -3.55205,1.63201 -7.24805,2.44801 -11.088,2.448 -1.72804,10e-6 -3.55204,-0.28799 -5.472,-0.864 -1.92004,-0.57599 -3.79204,-1.39199 -5.616,-2.448 -1.82403,-1.15199 -3.45603,-2.49599 -4.896,-4.032 -1.44003,-1.63198 -2.49603,-3.45598 -3.168,-5.472 -0.57603,0.57602 -1.29603,1.53602 -2.16,2.88 -0.76802,1.34402 -1.63202,2.73601 -2.592,4.176 -0.96002,1.34401 -2.01602,2.54401 -3.168,3.6 -1.15202,0.96001 -2.35202,1.44001 -3.6,1.44 -1.24801,1e-5 -2.30401,-0.62399 -3.168,-1.872 -0.76801,-1.34399 -1.39201,-2.78399 -1.872,-4.32 -0.48001,-1.63198 -0.81601,-3.16798 -1.008,-4.608 -0.19201,-1.43998 -0.28801,-2.25598 -0.288,-2.448 -1e-5,-1.15198 0.33599,-3.31198 1.008,-6.48 0.67199,-3.26397 1.67999,-6.62397 3.024,-10.08 1.34399,-3.45596 3.02398,-6.52796 5.04,-9.216 2.11198,-2.68795 4.55998,-4.03195 7.344,-4.032 1.05597,5e-5 1.72797,0.48005 2.016,1.44 0.38397,0.86405 0.57597,1.72805 0.576,2.592 l 0,4.32 c 0.47997,0.38404 0.95997,0.67204 1.44,0.864 0.57597,0.096 1.05597,0.28804 1.44,0.576 0.47997,0.19204 0.81597,0.52804 1.008,1.008 0.28797,0.48004 0.43197,1.24804 0.432,2.304 -3e-5,0.67204 -0.048,1.29604 -0.144,1.872 -0.096,0.48004 -0.14403,0.96003 -0.144,1.44 -3e-5,2.49603 0.19197,4.94403 0.576,7.344 0.38397,2.40002 1.15197,4.56002 2.304,6.48 1.15196,1.82402 2.73596,3.36002 4.752,4.608 2.01596,1.15201 4.70396,1.72801 8.064,1.728 4.22395,10e-6 7.77594,-0.86398 10.656,-2.592 2.97594,-1.82398 5.42394,-3.79198 7.344,-5.904 2.01593,-2.20797 3.59993,-4.17597 4.752,-5.904 1.15193,-1.82397 2.11193,-2.73597 2.88,-2.736 1.24792,3e-5 1.87192,0.62403 1.872,1.872 m -50.544,-6.336 c -3e-5,-0.38396 -0.096,-0.71996 -0.288,-1.008 -0.19202,-0.38396 -0.28802,-0.71996 -0.288,-1.008 -2e-5,-0.38396 0.096,-0.71996 0.288,-1.008 0.19197,-0.28796 0.28797,-0.67196 0.288,-1.152 -3e-5,-0.28796 -0.096,-0.47996 -0.288,-0.576 -0.19202,-0.19196 -0.28802,-0.38396 -0.288,-0.576 -0.86402,0.19204 -1.77602,1.00804 -2.736,2.448 -0.86402,1.44004 -1.72802,3.12004 -2.592,5.04 -0.76802,1.92003 -1.39202,3.88803 -1.872,5.904 -0.48002,1.92003 -0.72002,3.50402 -0.72,4.752 -2e-5,0.67202 0.19198,1.77602 0.576,3.312 0.38398,1.53602 0.81598,2.54402 1.296,3.024 1.63198,-3.35998 3.11998,-6.62398 4.464,-9.792 1.43998,-3.16797 2.15997,-6.28797 2.16,-9.36"
         id="path3157" />
      <path
         d="m 434.25035,567.38766 c -3e-5,0.768 -0.28803,1.344 -0.864,1.728 -0.57603,0.384 -1.24802,0.576 -2.016,0.576 -0.86402,0 -1.77602,-0.816 -2.736,-2.448 -0.86402,-1.63199 -1.72802,-3.69599 -2.592,-6.192 -0.86402,-2.49599 -1.68002,-5.18398 -2.448,-8.064 -0.76802,-2.97598 -1.44001,-5.71198 -2.016,-8.208 -0.57601,-2.59197 -1.05601,-4.75197 -1.44,-6.48 -0.28801,-1.72797 -0.43201,-2.68796 -0.432,-2.88 -10e-6,-0.38396 -0.19201,-1.39196 -0.576,-3.024 -0.28801,-1.63196 -0.72001,-4.17596 -1.296,-7.632 -0.48001,-3.45595 -1.05601,-7.91995 -1.728,-13.392 -0.57601,-5.56793 -1.20001,-12.43193 -1.872,-20.592 -1e-5,-0.86392 0.14399,-1.96792 0.432,-3.312 0.28799,-1.34391 0.95999,-2.01591 2.016,-2.016 1.34399,9e-5 2.35199,0.91208 3.024,2.736 0.76799,1.82408 1.34399,4.08008 1.728,6.768 0.47999,2.68807 0.81599,5.52007 1.008,8.496 0.19199,2.88006 0.43198,5.42406 0.72,7.632 0.38398,3.07206 0.71998,5.85605 1.008,8.352 0.38398,2.49605 0.71998,4.99205 1.008,7.488 0.38398,2.40004 0.81598,4.94404 1.296,7.632 0.57598,2.68803 1.24798,5.66403 2.016,8.928 l 5.76,23.904 0,0"
         id="path3159" />
    </g>
  </g>
</svg>
