<?xml version="1.0" encoding="UTF-8" standalone="no"?>
<!-- Created with Inkscape (http://www.inkscape.org/) -->

<svg
   xmlns:dc="http://purl.org/dc/elements/1.1/"
   xmlns:cc="http://creativecommons.org/ns#"
   xmlns:rdf="http://www.w3.org/1999/02/22-rdf-syntax-ns#"
   xmlns:svg="http://www.w3.org/2000/svg"
   xmlns="http://www.w3.org/2000/svg"
   version="1.1"
   viewBox="0 0 505 505"
   id="svg2">
  <defs
     id="defs4" />
  <metadata
     id="metadata7">
    <rdf:RDF>
      <cc:Work
         rdf:about="">
        <dc:format>image/svg+xml</dc:format>
        <dc:type
           rdf:resource="http://purl.org/dc/dcmitype/StillImage" />
        <dc:title></dc:title>
      </cc:Work>
    </rdf:RDF>
  </metadata>
  <g
     transform="translate(-86.937042,-330.91778)"
     id="layer1">
    <rect
       width="127.22816"
       height="6.9306931"
       x="410.50873"
       y="172.34804"
       id="rect4295"
       style="fill:#ffffff;fill-opacity:1;stroke:#ffffff;stroke-width:148.84638977;stroke-linecap:round;stroke-miterlimit:4;stroke-opacity:1;stroke-dasharray:none" />
    <g
       transform="matrix(-0.65836569,0.75269823,-0.75269823,-0.65836569,968.0178,661.67448)"
       id="g3817"
       style="fill:#dcdce6;fill-opacity:1">
      <rect
         width="150"
         height="512.85712"
         x="264.28571"
         y="276.64789"
         id="rect3043"
         style="fill:#dcdce6;fill-opacity:1;stroke:#000200;stroke-width:0;stroke-miterlimit:4;stroke-opacity:1;stroke-dasharray:none" />
      <path
         d="m 224.28572,568.07648 a 65,52.857143 0 1 1 -129.999999,0 65,52.857143 0 1 1 129.999999,0 z"
         transform="matrix(1.1538462,0,0,1,155.49444,221.41376)"
         id="path3815"
         style="fill:#dcdce6;fill-opacity:1;stroke:#000200;stroke-width:0;stroke-miterlimit:4;stroke-opacity:1;stroke-dasharray:none" />
    </g>
    <g
       transform="matrix(-0.51560171,0.58947859,-0.73411644,-0.64211269,915.20794,711.67758)"
       id="g3821"
       style="fill:#d2d2dc;fill-opacity:1">
      <rect
         width="150"
         height="512.85712"
         x="264.28571"
         y="276.64789"
         id="rect3823"
         style="fill:#d2d2dc;fill-opacity:1;stroke:#000200;stroke-width:0;stroke-miterlimit:4;stroke-opacity:1;stroke-dasharray:none" />
      <path
         d="m 224.28572,568.07648 a 65,52.857143 0 1 1 -129.999999,0 65,52.857143 0 1 1 129.999999,0 z"
         transform="matrix(1.1538462,0,0,1,155.49444,221.41376)"
         id="path3825"
         style="fill:#d2d2dc;fill-opacity:1;stroke:#000200;stroke-width:0;stroke-miterlimit:4;stroke-opacity:1;stroke-dasharray:none" />
    </g>
    <g
       transform="matrix(-0.37904487,0.43335551,-0.73411644,-0.64211269,858.6344,776.35712)"
       id="g3850"
       style="fill:#bebec8;fill-opacity:1">
      <rect
         width="150"
         height="512.85712"
         x="264.28571"
         y="276.64789"
         id="rect3852"
         style="fill:#bebec8;fill-opacity:1;stroke:#000200;stroke-width:0;stroke-miterlimit:4;stroke-opacity:1;stroke-dasharray:none" />
      <path
         d="m 224.28572,568.07648 a 65,52.857143 0 1 1 -129.999999,0 65,52.857143 0 1 1 129.999999,0 z"
         transform="matrix(1.1538462,0,0,1,155.49444,221.41376)"
         id="path3854"
         style="fill:#bebec8;fill-opacity:1;stroke:#000200;stroke-width:0;stroke-miterlimit:4;stroke-opacity:1;stroke-dasharray:none" />
    </g>
    <path
       d="m 436.99199,287.27264 a 103.94469,26.870058 0 1 1 -207.88937,0 103.94469,26.870058 0 1 1 207.88937,0 z"
       transform="matrix(-0.57774948,0.66053107,-0.8517374,-0.74499274,964.68473,719.67647)"
       id="path3827"
       style="fill:#bebec8;fill-opacity:1;stroke:#000200;stroke-width:0;stroke-miterlimit:4;stroke-opacity:1;stroke-dasharray:none" />
    <path
       d="m 561.15015,657.79658 c -15.16629,3.60141 -34.93807,12.06707 -55.37801,24.00527 l 12.37472,53.23694 c 4.59007,-2.74949 9.19615,-5.64663 13.78924,-8.72355 41.77393,-27.98463 66.01129,-58.28588 54.14675,-67.67295 -4.44923,-3.52015 -13.34839,-3.59653 -24.9327,-0.84571 z"
       id="path3907"
       style="fill:#bebec8;fill-opacity:1;stroke:#000200;stroke-width:0;stroke-miterlimit:4;stroke-opacity:1" />
    <path
       d="m 494.64721,780.24879 c 10.72386,-11.31303 22.6411,-29.21754 33.21744,-50.39424 l -39.4877,-37.78924 c -2.33756,4.81293 -4.60769,9.75825 -6.76856,14.84688 -19.65315,46.28127 -23.36028,84.90602 -8.29305,86.27122 5.65019,0.51197 13.14076,-4.29349 21.33187,-12.93462 z"
       id="path3914"
       style="fill:#bebec8;fill-opacity:1;stroke:#000200;stroke-width:0;stroke-miterlimit:4;stroke-opacity:1" />
    <path
       d="m 436.99199,287.27264 a 103.94469,26.870058 0 1 1 -207.88937,0 103.94469,26.870058 0 1 1 207.88937,0 z"
       transform="matrix(-0.3269435,0.3737889,-0.35654127,-0.31185744,741.85529,694.88463)"
       id="path3829"
       style="fill:#000000;fill-opacity:1;stroke:#000200;stroke-width:0;stroke-miterlimit:4;stroke-opacity:1;stroke-dasharray:none" />
    <path
       d="m 550.08775,794.73658 0.93318,4.01455 c -0.0435,0.79228 0.38344,1.78298 0.29941,2.62316 1.83703,13.42137 -4.4573,27.46342 -14.4437,32.20819 -0.94814,0.77177 -2.21703,1.05389 -3.26531,1.52837 l -4.02385,0.93531 c -1.15006,0.0369 -2.41329,0.34301 -3.60465,0.0685 -11.90797,0.21629 -24.29781,-11.18812 -28.08519,-25.1435 l -0.96144,-4.13619 c -0.27958,-2.8329 -0.48686,-5.79804 -0.22147,-8.62942 0.39516,-2.32298 0.81967,-4.63995 1.40396,-6.86585 l 2.03605,-6.37166 c 5.30702,-12.54111 7.77325,-16.92685 3.36708,-36.93939 l 9.5409,6.79604 c 10.1706,8.93406 15.74541,14.00709 25.11545,22.5872 1.07522,1.19904 2.20085,2.34787 3.38671,3.44425 1.89762,2.20033 3.77147,4.43186 5.44104,6.94167 1.24673,2.15934 2.2709,4.56271 3.08179,6.93874 z"
       id="path412"
       style="fill:#d0110f;fill-opacity:1" />
  </g>
</svg>
